<svg width="174" height="168" viewBox="0 0 174 168" fill="none" xmlns="http://www.w3.org/2000/svg">
  <defs>
    <linearGradient id="golden" x1="0%" y1="0%" x2="100%" y2="100%">
      <stop offset="0%" stop-color="#3C83F6"/>
      <stop offset="50%" stop-color="#72ACED"/>
      <stop offset="100%" stop-color="#A8D5E3"/>
    </linearGradient>
  </defs>

<path d="M163.539 153.884C163.808 150.068 164.293 145.829 164.449 141.857C164.777 138.445 164.561 135.003 163.808 131.658C163.474 130.418 163.187 129.165 162.946 127.903V127.151L163.106 126.295C163.106 126.131 163.483 124.951 163.375 125.167L164.185 123.019L164.722 121.84L164.774 121.572L164.882 121.356L167.572 116.148C169.606 112.448 171.195 108.521 172.306 104.449C173.347 101.517 173.515 98.3474 172.791 95.322C171.175 90.8146 166.065 94.5182 162.946 97.418C160.301 99.954 157.787 102.622 155.414 105.413C157.924 99.8796 159.872 94.1087 161.227 88.1871C161.795 85.5429 162.029 82.8381 161.924 80.1359C161.71 77.8973 161.148 75.7058 160.256 73.6405C159.865 72.4095 159.196 71.2846 158.3 70.3526C157.404 69.4207 156.306 68.7066 155.09 68.2656C153.873 67.8245 152.571 67.6683 151.285 67.809C149.998 67.9496 148.762 68.3834 147.67 69.0768C147.337 67.6301 146.943 66.1984 146.487 64.7855C145.961 62.6425 144.785 60.7138 143.119 59.2628C141.453 57.8118 139.379 56.9092 137.18 56.6781C134.061 56.6351 130.997 57.4937 128.357 59.1501C128.305 47.8749 126.798 35.8565 120.019 31.8288C117.964 30.9337 115.729 30.526 113.49 30.6378C111.25 30.7495 109.067 31.3776 107.112 32.4727C104.799 27.8572 101.408 24.8493 96.4573 25.9254C95.3659 26.1713 94.3033 26.5305 93.2869 26.9972V26.565C92.8456 21.2322 91.2685 16.0548 88.6611 11.3788C87.5967 9.44885 85.8498 7.98377 83.7613 7.26944C81.6728 6.5551 79.3925 6.64275 77.3653 7.5153C74.6395 8.70441 72.1308 10.3372 69.9415 12.3469C69.1936 9.79664 68.0696 7.3716 66.6065 5.15137C65.7263 3.69401 64.5111 2.46667 63.0612 1.57089C61.6114 0.675109 59.9686 0.136637 58.2689 0C53.9925 0.257692 49.9318 1.9619 46.7565 4.83158C36.8914 13.8813 29.1417 24.9851 24.0565 37.3561C20.9046 43.8208 18.0148 50.4094 15.394 57.1059C12.2231 65.4983 9.47654 74.0443 7.16466 82.7115C3.43946 96.4718 1.09626 110.568 0.169726 124.791C-0.192434 130.166 0.0253779 135.565 0.819411 140.894C1.18701 143.13 1.83756 145.311 2.75547 147.385C2.94957 147.949 3.23968 148.475 3.61305 148.94C3.23624 148.513 3.61305 149.048 3.72134 149.105L4.25841 149.965C4.77313 150.658 5.36932 151.288 6.03421 151.84C7.68086 152.969 9.6103 153.617 11.6057 153.711C13.6012 153.806 15.5835 153.344 17.3301 152.376C21.8809 149.975 25.8904 146.668 29.111 142.661C32.2961 138.868 35.1234 134.79 37.5569 130.478C40.069 127.401 42.4902 124.182 44.8204 120.82L41.4853 133.914C40.1725 138.816 39.0943 143.777 38.2542 148.781C37.1194 153.772 37.1936 158.962 38.4708 163.919C38.7261 164.769 39.189 165.543 39.818 166.171C40.4469 166.798 41.2223 167.26 42.0744 167.515C44.536 167.607 46.9407 166.762 48.8008 165.151C51.8168 162.821 54.5755 160.177 57.0301 157.264C57.7305 158.698 58.9364 159.825 60.4171 160.427C63.9168 161.663 68.378 159.031 72.1461 155.76C73.3646 154.685 74.6019 153.523 75.858 152.272C75.6122 153.963 75.4503 155.665 75.3729 157.372C75.2397 158.59 75.3678 159.823 75.7486 160.989C76.1295 162.154 76.7544 163.225 77.5818 164.131C78.6364 164.816 79.882 165.149 81.1386 165.081C82.3952 165.014 83.5977 164.549 84.5724 163.755C88.8774 160.633 92.638 156.825 95.7037 152.484C97.6787 149.908 99.5989 147.243 101.464 144.489C101.284 145.9 101.507 147.332 102.11 148.621C102.341 149.027 102.658 149.379 103.039 149.651C103.42 149.922 103.856 150.108 104.317 150.195C104.777 150.282 105.251 150.267 105.705 150.153C106.16 150.039 106.584 149.827 106.948 149.533C108.832 148.493 110.584 147.23 112.167 145.773C114.425 143.842 116.701 141.787 118.997 139.606C124.379 134.22 129.175 128.282 133.307 121.891C137.51 115.622 141.044 108.93 143.85 101.925C146.201 95.5873 147.686 88.9616 148.263 82.2275C148.448 80.2655 148.52 78.2945 148.48 76.3242L148.961 76.0563L149.337 75.9482L149.874 75.7883L151.49 75.6803H151.598L152.244 75.8402L152.889 76.1081L153.157 76.268L154.284 77.2879L154.825 77.88L155.094 78.4159L156.059 80.2958L156.436 81.4756C156.22 80.7798 156.436 81.4756 156.436 81.6355L156.653 82.6554L156.761 83.1394V85.2872L156.653 86.1991V86.467L156.276 88.6149L155.843 90.6547L155.579 91.6184L155.362 92.2667L154.019 96.45C152.831 99.7342 151.484 102.959 149.983 106.113L149.714 106.701L149.177 107.937L148.047 110.193L145.465 115.128C143.239 118.979 140.777 122.69 138.093 126.239C135.226 130.102 132.466 134.11 129.812 138.262C129.328 139.019 129.023 139.877 128.92 140.769C128.817 141.662 128.919 142.566 129.219 143.413C130.024 145.133 131.692 144.649 133.203 143.093C138.378 137.381 143.243 131.397 147.778 125.167C152.187 119.264 156.601 113.088 161.335 107.829L162.569 106.541L163.163 105.845L163.431 105.577L165.904 103.321L166.983 102.461L167.143 102.41L166.606 104.557V104.825L166.498 105.145L166.065 106.381L165.099 108.797L164.99 108.957L164.83 109.277L164.293 110.513L162.786 113.304C160.781 116.694 159.158 120.294 157.943 124.039C157.283 126.147 156.885 128.329 156.761 130.535C156.745 132.17 156.98 133.798 157.458 135.362L157.943 137.134L158.104 137.886L158.212 138.21V138.37C158.356 140.265 158.429 142.197 158.429 144.165C158.429 148.173 158.267 152.27 157.943 156.456C157.783 158.604 159.234 159.675 160.633 158.98C161.487 158.419 162.195 157.665 162.7 156.779C163.204 155.892 163.491 154.899 163.535 153.88M132.073 66.2851H132.181L133.095 66.069L134.438 65.9091H135.521C136.187 66.0184 136.825 66.2562 137.4 66.6092L137.721 66.8253L138.206 67.2012L139.12 68.273L139.228 68.3811L139.605 69.025L140.411 70.6888L140.896 71.8686L141.056 72.4045L141.273 73.3163V73.5324C137.767 76.8184 134.564 80.4111 131.701 84.2673C128.686 88.2029 125.816 92.3171 123.09 96.6099C124.911 90.5324 126.261 84.3241 127.127 78.0399C127.557 74.6777 127.879 71.3327 128.093 68.0051L130.57 66.8253L132.073 66.2851ZM112.764 39.5558H113.57L114.003 39.612L115.398 39.988L116.476 40.472L116.905 40.7399L117.39 41.1159L118.196 41.9716L118.356 42.2396L118.681 42.7236C119.168 43.5437 119.582 44.4057 119.915 45.2993L120.188 45.9994L120.292 46.3753L120.725 47.983C121.308 50.5279 121.703 53.1119 121.908 55.7144L121.96 56.2503L122.016 57.0541L122.124 59.1501L122.176 63.1735C118.205 66.2416 114.531 69.6736 111.201 73.4244L110.235 74.5005C110.76 71.0667 111.118 67.6097 111.309 64.1415C111.589 58.1759 111.374 52.1973 110.664 46.2673C110.435 44.1542 110.076 42.0572 109.59 39.988C110.648 39.735 111.729 39.5902 112.816 39.5558M93.9885 34.8366L94.6382 34.6205H94.7422L95.9809 34.4044H96.9468L98.0252 34.6724L98.8828 35.1045L99.6365 35.7485L100.286 36.3924C98.1127 37.9711 96.0612 39.7104 94.1488 41.5956C94.1488 39.308 94.0954 37.0723 93.9885 34.8885V34.8366ZM74.6279 115.452L72.5792 120.552L71.5051 123.071L70.9117 124.359L70.4786 125.223L70.4266 125.435C68.0066 130.583 65.3131 135.599 62.3575 140.461L61.2834 142.125L61.4437 138.906L61.6082 137.026L61.6602 136.006L61.7122 135.578L62.2536 131.447C63.0765 125.972 64.1521 120.48 65.4804 114.968L67.0916 108.205L67.3601 107.401L67.7369 106.165C68.2047 104.482 68.7071 102.819 69.2442 101.174C71.5051 94.2301 74.0519 87.4308 76.8845 80.7755L79.0371 75.8402L79.1974 75.5204L79.3056 75.3043L79.8427 74.1245L81.1854 71.3327C82.8024 68.1117 84.5248 64.9454 86.3526 61.8338L87.6952 59.6859L87.587 60.6497C86.8488 68.1468 85.7183 75.6002 84.1999 82.9795C82.6683 90.4105 80.7454 97.7559 78.4394 104.985C77.3082 108.517 76.0543 112.008 74.6799 115.452M73.4412 17.8699L74.5153 17.1223L75.0004 16.8025L75.8623 16.3184L77.205 15.7264L77.5298 15.6183L77.963 15.5103L79.1974 15.3504H80.0593L81.2937 15.8863L81.6705 16.0505L81.9953 16.2666L82.9612 17.2303L83.4463 17.7662L83.6629 18.0903L83.7148 18.1422C84.3149 19.0535 84.82 20.0237 85.2221 21.0377L85.8112 22.7058L85.8675 22.8657L85.9757 23.0818L86.2963 24.3135C86.8406 26.3976 87.2543 28.5135 87.535 30.649C81.7917 35.7475 76.8093 41.64 72.7395 48.1472L71.8819 49.4351C72.4425 43.5477 72.6753 37.6338 72.5792 31.7207C72.4581 27.5894 72.0995 23.4685 71.5051 19.3782L73.4412 17.8699ZM53.3183 90.7109C51.9816 94.7653 50.7253 98.8458 49.5501 102.95L48.1554 105.474C47.5058 104.773 46.1631 105.149 45.4657 106.973C44.3887 109.768 43.2048 112.56 41.9141 115.348L40.4632 117.388C37.3477 121.611 34.026 125.678 30.51 129.575L28.8425 131.395L27.9806 132.311L27.5518 132.739L27.2269 133.058L20.3966 139.498C19.3568 140.419 18.2803 141.299 17.1698 142.134L16.793 142.397L16.2559 142.722L15.5023 143.041H14.9652L14.5321 142.882C15.0735 143.149 14.9089 143.041 14.7486 142.882L14.5321 142.562L14.4281 142.346L14.3199 141.97C14.5364 142.618 14.3199 142.078 14.3199 141.81L14.0513 140.47V136.818L14.1596 136.118C14.4804 133.582 14.9827 131.072 15.6625 128.607L16.1996 126.727L16.3079 126.191L16.4725 125.651L17.7632 121.36C20.99 111.377 25.1869 101.77 28.9508 91.9469C31.8556 84.2544 34.9567 76.6512 38.2542 69.1373C41.4864 61.8936 45.1157 54.833 49.1256 47.9873C52.3815 42.5943 55.9538 37.3979 59.8238 32.4251C61.5476 30.1347 63.3422 27.9162 65.2075 25.7698L66.1734 24.6938L66.7104 29.4173V29.9532L66.8187 30.865L66.927 32.7449C67.182 37.972 67.0561 43.2106 66.5502 48.4195L66.3899 50.2432L66.3379 51.1551L66.2816 51.6909C66.0023 54.0646 65.644 56.4284 65.2075 58.7784C65.0285 60.0662 64.7946 61.3354 64.5058 62.5858C60.1225 71.6884 56.3842 81.0865 53.3183 90.7109ZM6.62759 140.997L6.46734 140.461L6.35906 140.029L5.98224 138.53L5.38886 134.934L5.2286 133.378L5.1723 132.842L5.12032 131.874C4.86466 127.724 4.95448 123.559 5.38886 119.424L5.60542 117.436L5.7137 116.472V115.88L6.25077 111.908L7.86199 101.977C9.29429 93.6247 11.2178 85.3633 13.6225 77.2361C15.9864 69.1342 18.8239 61.1774 22.1204 53.4066C24.7072 47.2389 27.5245 41.17 30.5663 35.2126C32.1868 32.1147 33.9087 29.0706 35.7291 26.0853L37.0198 24.0974L37.6652 23.0256L38.0983 22.4379C39.7605 19.9424 41.6294 17.5904 43.6856 15.4066L44.227 14.8664L44.7641 14.3305L46.4879 12.7747L49.4981 10.467L49.9312 10.1429L50.412 9.87491L51.9712 9.07108L53.21 8.5352L53.8597 8.31912H53.9636C54.756 8.12176 55.5682 8.01448 56.3848 7.99932H56.8699L57.892 8.26727L58.8016 8.64325L59.2347 8.85933L59.343 8.91118C59.9263 9.32218 60.4675 9.78975 60.9586 10.3071L61.7079 11.1627L61.8724 11.3788L62.141 11.811C63.1218 13.3697 63.8991 15.0471 64.4539 16.8025L64.5621 17.1223L64.6141 17.4464C60.9184 21.5045 57.4344 25.7496 54.1758 30.1649C49.6009 36.2506 45.4671 42.6542 41.8059 49.327C37.7687 56.7878 34.0888 64.4356 30.7785 72.2446C29.1298 76.0361 27.5705 79.8463 26.1008 83.6753C24.7379 87.1124 23.3923 90.5294 22.0641 93.9262C20.2739 98.219 18.5341 102.513 16.845 106.809C14.7642 112.172 12.8988 117.616 11.2533 123.127C9.50666 128.63 8.31685 134.294 7.70174 140.034L7.64976 143.361L6.62759 140.997ZM51.9193 153.88V153.936L51.759 154.04L51.1093 154.688L49.4981 156.136L48.0991 157.26L47.4538 157.8L47.1333 157.96L46.0548 158.496L45.7863 158.604L45.2492 158.763H45.0326L44.8161 158.712L44.5518 158.444L44.3353 158.176L43.9585 157.316L43.7982 156.62L43.6899 155.544V152.7L43.8502 150.985V150.928L43.9585 150.068L44.6038 146.045C45.4657 141.213 46.7001 136.494 47.8869 131.714C49.4981 125.022 51.183 118.313 52.9414 111.589L54.4487 106.057L54.7173 105.093L55.1504 103.641L55.2024 103.481C61.3752 91.5814 66.0369 78.96 69.0796 65.9091C71.3455 61.4128 73.8228 57.0258 76.5033 52.7627L77.3653 51.3668L77.6858 50.9346L78.4394 49.8629C80.1257 47.5004 81.8827 45.2647 83.7105 43.1557L85.0532 41.6518L85.7549 40.9517L86.1317 40.5757C86.8131 39.8612 87.5119 39.1986 88.228 38.5878V40.3596C88.3377 43.0102 88.3565 45.6954 88.2843 48.4152C85.3037 52.4443 82.6075 56.6752 80.2152 61.0775C76.5874 67.8073 73.32 74.7245 70.4266 81.7997C65.6527 93.1899 61.872 104.97 59.1264 117.008C57.9031 122.548 56.8989 128.135 56.1162 133.754C55.2632 139.203 54.9743 144.725 55.2543 150.233L54.2885 151.304C53.5348 152.198 52.7451 153.056 51.9193 153.88ZM75.5331 143.681L74.2424 145.077L73.5971 145.725L73.2766 146.045L73.2203 146.153L70.5349 148.569L69.1879 149.641L68.5382 150.125L67.8972 150.557L65.7446 151.628L65.476 151.68L65.1512 151.788L64.2416 151.84L63.4837 151.68L63.3234 151.572L63.0549 151.412L62.4615 150.764C62.5712 150.908 62.5351 150.82 62.3532 150.501C70.2367 138.882 76.5662 126.286 81.1811 113.032C86.5676 98.2093 90.302 82.8397 92.3167 67.2012C93.0703 61.7272 93.6088 56.305 93.9322 50.9346L94.1488 50.6667L95.4915 49.1109L95.9766 48.6269L96.7302 47.9311L99.9007 45.1912L101.516 43.9596L102.378 43.4237L102.647 43.2076L103.023 42.9915L103.4 42.7754L103.561 43.4755C104.274 46.1523 104.777 48.8802 105.068 51.6348L105.284 53.7264L105.388 54.4784V55.1785C105.683 59.484 105.719 63.8033 105.497 68.1131L105.228 71.6007V71.8167L105.012 72.9966L104.578 75.8402C103.934 79.5971 103.146 83.2647 102.214 86.843L101.304 88.563C93.2578 104.144 86.1788 120.203 80.1069 136.65L79.3013 139.014L78.0106 140.729C77.2194 141.732 76.3936 142.699 75.5331 143.629M108.078 121.196L107.758 122.051L107.272 123.019L106.09 125.487C105.23 127.204 104.333 128.887 103.4 130.535C102.395 132.465 101.284 134.307 100.065 136.062L98.2331 138.854L97.8563 139.39L97.3192 140.193L95.9202 142.181C94.2547 144.522 92.4962 146.796 90.6491 148.997C89.8262 149.999 88.9831 150.964 88.1197 151.892L87.5307 152.54L87.4224 152.592L86.0797 153.88L85.0012 154.792L84.1956 155.332L83.5459 155.6L83.2817 155.704L82.3678 155.812L82.095 155.76L81.991 155.6L81.8827 155.384L81.7745 154.848V152.7L81.991 151.68C82.2047 150.176 82.5079 148.674 82.9006 147.173L83.2254 145.993L83.442 145.293L84.0873 143.037L84.6244 141.265C87.5851 136.953 90.2284 132.432 92.5332 127.739C98.3693 115.999 103.053 103.723 106.519 91.0825L110.014 84.9113L110.447 84.2673L111.145 83.3555C112.759 81.3157 114.462 79.3839 116.255 77.5602L116.632 77.128L117.117 76.6959L118.516 75.3043L121.743 72.4607L121.903 72.3526V72.5125L121.526 76.5403V76.9119L121.418 77.6639L121.15 79.8118C120.487 84.4855 119.517 89.1109 118.248 93.6582L117.923 94.8424C118.031 94.3022 117.706 95.59 117.654 95.59L116.74 98.8139C114.291 106.445 111.418 113.935 108.134 121.247M137.985 101.39L137.288 103.053L136.911 103.805L136.318 105.037C134.632 108.461 132.765 111.793 130.726 115.02L129.271 117.276L128.573 118.348L128.357 118.724L127.98 119.264C125.918 122.198 123.71 125.028 121.366 127.743C119.318 130.232 117.05 132.532 114.588 134.614C112.677 136.366 110.703 138.048 108.671 139.658L108.295 139.926L108.563 138.854L108.723 138.154L108.94 137.458C109.611 135.186 110.437 132.962 111.413 130.803L112.327 128.655L112.864 127.583L112.972 127.207C117.473 117.383 122.705 107.909 128.625 98.8658L130.401 96.074L131.315 94.7343L131.748 94.0861L131.856 93.8743L135.62 88.6149C136.123 88.007 136.589 87.3803 137.019 86.735C136.266 87.8629 137.288 86.5189 137.504 86.3028L139.44 83.9432L141.268 81.9553L141.805 81.3675L142.13 81.0477L141.966 85.1273L141.862 85.8793L141.805 86.5232L141.485 88.6668C141.234 90.2802 140.91 91.8907 140.515 93.4983L140.081 95.1103L139.926 95.8623L139.601 96.934L137.985 101.39ZM167.36 101.282C167.215 100.959 167.215 100.959 167.36 101.282V101.282Z" fill="url(#golden)"/>
</svg>
