<svg width="694" height="366" viewBox="0 0 694 366" fill="none" xmlns="http://www.w3.org/2000/svg">
<g clip-path="url(#clip0_1_7)">
<path d="M246.451 288.486C246.854 282.745 247.582 276.368 247.816 270.394C248.309 265.261 247.984 260.082 246.854 255.051C246.353 253.185 245.922 251.3 245.561 249.402V248.271L245.801 246.984C245.801 246.737 246.367 244.962 246.204 245.287L247.42 242.056L248.226 240.281L248.304 239.878L248.466 239.553L252.503 231.719C255.556 226.154 257.941 220.247 259.608 214.121C261.171 209.711 261.424 204.942 260.337 200.391C257.912 193.611 250.241 199.182 245.561 203.544C241.591 207.359 237.818 211.373 234.256 215.571C238.024 207.247 240.946 198.566 242.98 189.658C243.833 185.681 244.184 181.612 244.027 177.547C243.706 174.18 242.861 170.883 241.524 167.776C240.937 165.924 239.933 164.232 238.588 162.83C237.243 161.428 235.595 160.354 233.769 159.691C231.943 159.027 229.99 158.792 228.059 159.004C226.128 159.216 224.272 159.868 222.633 160.911C222.134 158.735 221.542 156.581 220.858 154.456C220.068 151.232 218.303 148.331 215.802 146.148C213.302 143.965 210.189 142.607 206.889 142.26C202.208 142.195 197.609 143.487 193.647 145.978C193.569 129.017 191.307 110.938 181.133 104.879C178.049 103.533 174.695 102.92 171.333 103.088C167.972 103.256 164.696 104.201 161.761 105.848C158.29 98.9051 153.2 94.3804 145.77 95.9992C144.132 96.369 142.537 96.9093 141.011 97.6114V96.9613C140.349 88.9392 137.982 81.1509 134.069 74.117C132.471 71.2137 129.849 69.0099 126.715 67.9353C123.58 66.8607 120.158 66.9926 117.115 68.3051C113.024 70.0939 109.259 72.55 105.973 75.5732C104.85 71.7369 103.164 68.089 100.968 64.7491C99.6466 62.5568 97.8227 60.7106 95.6467 59.3631C93.4706 58.0156 91.0051 57.2055 88.4539 57C82.0356 57.3876 75.941 59.9513 71.1753 64.2681C56.3691 77.8815 44.7379 94.5847 37.1056 113.194C32.3751 122.919 28.0378 132.83 24.1044 142.903C19.3453 155.528 15.223 168.384 11.7532 181.422C6.16218 202.121 2.64534 223.325 1.25474 244.721C0.711181 252.807 1.03809 260.928 2.22983 268.944C2.78155 272.308 3.75793 275.589 5.1356 278.708C5.42692 279.557 5.86234 280.348 6.42272 281.049C5.85717 280.405 6.42272 281.211 6.58524 281.296L7.39131 282.589C8.16384 283.633 9.05864 284.58 10.0566 285.411C12.528 287.108 15.4238 288.083 18.4187 288.226C21.4136 288.368 24.3888 287.672 27.0102 286.217C33.8404 282.605 39.858 277.631 44.6918 271.603C49.4722 265.897 53.7157 259.762 57.368 253.277C61.1384 248.648 64.7722 243.805 68.2695 238.747L63.2641 258.445C61.2937 265.818 59.6754 273.281 58.4146 280.808C56.7113 288.317 56.8227 296.124 58.7396 303.581C59.1228 304.86 59.8175 306.024 60.7615 306.968C61.7055 307.912 62.8693 308.607 64.1481 308.99C67.8427 309.129 71.4519 307.858 74.2436 305.434C78.7702 301.929 82.9107 297.952 86.5947 293.569C87.6459 295.727 89.4558 297.422 91.6782 298.328C96.9307 300.187 103.626 296.228 109.282 291.307C111.111 289.691 112.968 287.942 114.853 286.061C114.484 288.604 114.241 291.164 114.125 293.732C113.925 295.565 114.117 297.419 114.689 299.172C115.26 300.925 116.198 302.537 117.44 303.899C119.023 304.93 120.892 305.431 122.778 305.329C124.664 305.227 126.469 304.529 127.932 303.334C134.393 298.637 140.038 292.909 144.639 286.379C147.603 282.505 150.485 278.496 153.285 274.353C153.013 276.474 153.349 278.629 154.253 280.568C154.6 281.179 155.076 281.708 155.648 282.117C156.221 282.526 156.875 282.805 157.566 282.936C158.257 283.066 158.968 283.045 159.65 282.873C160.332 282.701 160.968 282.382 161.514 281.939C164.343 280.375 166.973 278.476 169.348 276.283C172.736 273.38 176.154 270.287 179.599 267.007C187.676 258.905 194.875 249.973 201.077 240.359C207.385 230.928 212.688 220.861 216.899 210.325C220.429 200.79 222.657 190.823 223.524 180.693C223.801 177.742 223.909 174.777 223.849 171.813L224.57 171.41L225.136 171.248L225.942 171.007L228.367 170.845H228.529L229.498 171.085L230.466 171.488L230.869 171.729L232.559 173.263L233.372 174.154L233.775 174.96L235.225 177.788L235.79 179.562C235.465 178.516 235.79 179.562 235.79 179.803L236.115 181.337L236.278 182.065V185.296L236.115 186.668V187.071L235.55 190.302L234.9 193.37L234.503 194.82L234.178 195.795L232.163 202.088C230.379 207.029 228.358 211.88 226.104 216.624L225.701 217.508L224.895 219.368L223.199 222.761L219.324 230.185C215.984 235.979 212.289 241.561 208.26 246.899C203.957 252.711 199.814 258.739 195.831 264.985C195.104 266.124 194.647 267.414 194.492 268.757C194.338 270.099 194.491 271.459 194.94 272.734C196.15 275.321 198.652 274.593 200.921 272.253C208.688 263.66 215.99 254.659 222.796 245.287C229.413 236.407 236.037 227.117 243.142 219.205L244.995 217.268L245.886 216.221L246.289 215.818L250.001 212.425L251.619 211.131L251.86 211.053L251.054 214.284V214.687L250.891 215.168L250.241 217.027L248.791 220.661L248.629 220.902L248.388 221.383L247.582 223.242L245.32 227.442C242.312 232.541 239.875 237.957 238.052 243.59C237.06 246.761 236.464 250.043 236.278 253.361C236.253 255.821 236.606 258.27 237.324 260.623L238.052 263.288L238.293 264.419L238.455 264.907V265.147C238.672 267.999 238.781 270.905 238.781 273.865C238.781 279.894 238.538 286.057 238.052 292.354C237.812 295.585 239.99 297.197 242.089 296.15C243.371 295.308 244.434 294.173 245.191 292.839C245.948 291.506 246.378 290.011 246.445 288.479M199.224 156.711H199.387L200.758 156.386L202.774 156.146H204.399C205.399 156.31 206.357 156.668 207.22 157.199L207.701 157.524L208.429 158.09L209.801 159.702L209.963 159.864L210.529 160.833L211.738 163.336L212.466 165.111L212.707 165.917L213.032 167.289V167.614C207.77 172.557 202.962 177.961 198.665 183.762C194.141 189.682 189.833 195.871 185.742 202.329C188.475 193.186 190.501 183.847 191.801 174.394C192.446 169.336 192.93 164.305 193.25 159.299L196.969 157.524L199.224 156.711ZM170.245 116.503H171.454L172.104 116.588L174.197 117.153L175.816 117.881L176.459 118.284L177.187 118.85L178.396 120.137L178.637 120.54L179.124 121.268C179.856 122.502 180.476 123.799 180.977 125.143L181.387 126.196L181.543 126.762L182.193 129.18C183.067 133.008 183.66 136.895 183.967 140.81L184.045 141.616L184.13 142.825L184.292 145.978L184.37 152.031C178.411 156.646 172.896 161.809 167.898 167.451L166.448 169.07C167.236 163.904 167.774 158.704 168.06 153.487C168.481 144.513 168.157 135.52 167.092 126.599C166.748 123.42 166.21 120.266 165.48 117.153C167.068 116.773 168.69 116.555 170.323 116.503M142.064 109.404L143.04 109.079H143.196L145.055 108.754H146.504L148.123 109.157L149.41 109.807L150.541 110.776L151.516 111.744C148.254 114.119 145.175 116.736 142.305 119.572C142.305 116.13 142.225 112.767 142.064 109.482V109.404ZM113.007 230.673L109.932 238.344L108.32 242.134L107.429 244.071L106.779 245.371L106.701 245.69C103.069 253.435 99.0264 260.98 94.5905 268.294L92.9783 270.797L93.2189 265.953L93.4659 263.125L93.5439 261.591L93.6219 260.948L94.4345 254.733C95.6696 246.498 97.2839 238.236 99.2774 229.945L101.696 219.771L102.099 218.561L102.664 216.702C103.366 214.171 104.12 211.668 104.926 209.194C108.32 198.749 112.142 188.521 116.394 178.509L119.624 171.085L119.865 170.604L120.027 170.279L120.833 168.504L122.849 164.305C125.276 159.459 127.861 154.696 130.604 150.016L132.619 146.785L132.457 148.234C131.349 159.512 129.652 170.724 127.373 181.825C125.074 193.003 122.188 204.053 118.727 214.927C117.03 220.24 115.148 225.491 113.085 230.673M111.226 83.8814L112.838 82.7567L113.566 82.2757L114.859 81.5476L116.875 80.6569L117.362 80.4944L118.012 80.3319L119.865 80.0914H121.158L123.011 80.8975L123.577 81.1445L124.064 81.4696L125.514 82.9193L126.242 83.7254L126.567 84.213L126.645 84.291C127.546 85.6619 128.304 87.1214 128.907 88.6466L129.791 91.156L129.876 91.3965L130.038 91.7215L130.519 93.5743C131.336 96.7094 131.957 99.8924 132.379 103.105C123.759 110.774 116.281 119.638 110.172 129.427L108.885 131.364C109.727 122.508 110.076 113.612 109.932 104.717C109.75 98.5023 109.212 92.3032 108.32 86.1502L111.226 83.8814ZM81.0237 193.455C79.0175 199.554 77.132 205.692 75.3682 211.866L73.275 215.662C72.2999 214.609 70.2847 215.175 69.2381 217.918C67.6216 222.122 65.8448 226.321 63.9076 230.517L61.7299 233.585C57.054 239.937 52.0685 246.056 46.7915 251.918L44.2888 254.655L42.9952 256.033L42.3516 256.677L41.864 257.158L31.6126 266.844C30.052 268.23 28.4363 269.553 26.7696 270.81L26.2041 271.206L25.398 271.694L24.2669 272.175H23.4608L22.8108 271.934C23.6233 272.337 23.3763 272.175 23.1358 271.934L22.8108 271.453L22.6547 271.128L22.4922 270.563C22.8173 271.538 22.4922 270.725 22.4922 270.322L22.0892 268.307V262.813L22.2517 261.76C22.7332 257.945 23.487 254.169 24.5074 250.462L25.3135 247.634L25.476 246.828L25.723 246.015L27.6602 239.56C32.5032 224.542 38.8023 210.091 44.4513 195.314C48.811 183.742 53.4655 172.305 58.4146 161.002C63.2656 150.106 68.7127 139.484 74.7311 129.186C79.6178 121.074 84.9793 113.257 90.7876 105.777C93.3749 102.331 96.0683 98.9939 98.8679 95.7651L100.318 94.1464L101.124 101.252V102.058L101.286 103.43L101.449 106.258C101.831 114.121 101.642 122.001 100.883 129.837L100.643 132.58L100.565 133.952L100.48 134.758C100.061 138.329 99.523 141.884 98.8679 145.419C98.5992 147.357 98.2482 149.266 97.8148 151.147C91.236 164.84 85.6253 178.977 81.0237 193.455ZM10.9471 269.1L10.7066 268.294L10.5441 267.644L9.97856 265.388L9.08797 259.979L8.84745 257.639L8.76294 256.833L8.68493 255.376C8.30122 249.133 8.43603 242.868 9.08797 236.647L9.413 233.657L9.57552 232.207V231.316L10.3816 225.342L12.7998 210.403C14.9495 197.838 17.8364 185.411 21.4456 173.185C24.9935 160.997 29.2522 149.028 34.1998 137.339C38.0823 128.061 42.3106 118.931 46.876 109.97C49.3082 105.31 51.8925 100.73 54.6247 96.2397L56.5619 93.2493L57.5305 91.637L58.1806 90.7529C60.6752 86.999 63.4803 83.4609 66.5664 80.1759L67.3789 79.3632L68.185 78.5571L70.7723 76.2168L75.2902 72.7453L75.9402 72.2577L76.6618 71.8547L79.002 70.6455L80.8612 69.8394L81.8363 69.5143H81.9923C83.1816 69.2174 84.4006 69.056 85.6262 69.0332H86.3542L87.8884 69.4363L89.2535 70.0019L89.9036 70.3269L90.0661 70.4049C90.9416 71.0232 91.7538 71.7266 92.4908 72.5047L93.6154 73.7919L93.8624 74.117L94.2655 74.7671C95.7376 77.1119 96.9042 79.6352 97.7368 82.2757L97.8993 82.7567L97.9773 83.2443C92.4306 89.3489 87.2015 95.7348 82.3108 102.377C75.4445 111.531 69.2401 121.164 63.7451 131.202C57.6859 142.425 52.1629 153.929 47.1945 165.676C44.72 171.38 42.3798 177.111 40.1739 182.871C38.1284 188.042 36.1088 193.182 34.1153 198.292C31.4284 204.749 28.8173 211.209 26.2821 217.671C23.1591 225.738 20.3595 233.927 17.8898 242.218C15.2682 250.496 13.4825 259.016 12.5593 267.65L12.4813 272.656L10.9471 269.1ZM78.924 288.479V288.564L78.6835 288.72L77.7084 289.695L75.2902 291.873L73.1905 293.563L72.2219 294.376L71.7409 294.616L70.1222 295.422L69.7192 295.585L68.9131 295.825H68.5881L68.263 295.747L67.8665 295.344L67.5415 294.941L66.9759 293.647L66.7354 292.601L66.5729 290.982V286.704L66.8134 284.124V284.039L66.9759 282.745L67.9445 276.693C69.2381 269.425 71.0908 262.326 72.872 255.136C75.2902 245.068 77.8189 234.976 80.4582 224.861L82.7204 216.54L83.1234 215.09L83.7735 212.906L83.8515 212.665C93.1161 194.764 100.113 175.778 104.679 156.146C108.08 149.382 111.798 142.783 115.821 136.37L117.115 134.27L117.596 133.62L118.727 132.008C121.258 128.454 123.895 125.091 126.638 121.918L128.654 119.656L129.707 118.603L130.272 118.037C131.295 116.963 132.344 115.966 133.419 115.047V117.712C133.583 121.7 133.611 125.739 133.503 129.83C129.03 135.891 124.983 142.256 121.393 148.878C115.948 159.001 111.044 169.407 106.701 180.05C99.5362 197.184 93.8618 214.904 89.741 233.013C87.905 241.348 86.3978 249.751 85.2231 258.204C83.9428 266.401 83.5093 274.707 83.9295 282.992L82.4799 284.605C81.3487 285.948 80.1635 287.24 78.924 288.479ZM114.365 273.137L112.428 275.237L111.46 276.212L110.979 276.693L110.894 276.855L106.864 280.489L104.842 282.102L103.867 282.83L102.905 283.48L99.674 285.092L99.2709 285.17L98.7834 285.333L97.4183 285.411L96.2807 285.17L96.0401 285.008L95.6371 284.767L94.7465 283.792C94.9112 284.009 94.857 283.876 94.584 283.395C106.416 265.918 115.916 246.97 122.842 227.032C130.927 204.735 136.531 181.614 139.555 158.09C140.686 149.855 141.495 141.699 141.98 133.62L142.305 133.217L144.32 130.877L145.048 130.149L146.179 129.102L150.938 124.98L153.363 123.128L154.656 122.321L155.059 121.996L155.625 121.671L156.19 121.346L156.431 122.4C157.501 126.426 158.257 130.53 158.693 134.673L159.018 137.82L159.174 138.951V140.004C159.617 146.481 159.671 152.978 159.337 159.461L158.934 164.708V165.033L158.608 166.807L157.958 171.085C156.992 176.737 155.809 182.254 154.409 187.636L153.044 190.224C140.968 213.661 130.343 237.819 121.23 262.56L120.021 266.116L118.084 268.697C116.896 270.205 115.657 271.659 114.365 273.059M163.211 239.313L162.73 240.6L162.002 242.056L160.227 245.768C158.936 248.351 157.59 250.882 156.19 253.361C154.682 256.265 153.014 259.036 151.185 261.676L148.435 265.875L147.869 266.681L147.063 267.891L144.964 270.881C142.464 274.402 139.825 277.822 137.052 281.133C135.817 282.641 134.552 284.093 133.256 285.489L132.372 286.464L132.21 286.542L130.194 288.479L128.576 289.851L127.367 290.663L126.391 291.067L125.995 291.223L124.623 291.385L124.214 291.307L124.058 291.067L123.895 290.742L123.733 289.935V286.704L124.058 285.17C124.378 282.908 124.833 280.648 125.423 278.39L125.91 276.615L126.235 275.562L127.204 272.168L128.01 269.503C132.454 263.016 136.421 256.216 139.88 249.155C148.639 231.495 155.669 213.028 160.871 194.014L166.117 184.731L166.767 183.762L167.813 182.39C170.236 179.322 172.793 176.416 175.484 173.672L176.05 173.022L176.778 172.372L178.877 170.279L183.72 166.001L183.961 165.839V166.079L183.395 172.138V172.697L183.233 173.828L182.83 177.059C181.835 184.09 180.38 191.048 178.474 197.888L177.987 199.67C178.149 198.857 177.662 200.794 177.584 200.794L176.212 205.644C172.536 217.124 168.223 228.39 163.295 239.391M208.098 209.519L207.051 212.022L206.485 213.153L205.595 215.005C203.065 220.156 200.263 225.169 197.203 230.023L195.018 233.416L193.972 235.028L193.647 235.594L193.081 236.407C189.986 240.82 186.673 245.077 183.155 249.161C180.081 252.906 176.676 256.365 172.981 259.498C170.113 262.132 167.151 264.663 164.102 267.085L163.536 267.488L163.939 265.875L164.18 264.822L164.505 263.776C165.512 260.358 166.752 257.013 168.216 253.764L169.588 250.533L170.394 248.921L170.557 248.355C177.311 233.577 185.164 219.326 194.05 205.722L196.715 201.523L198.087 199.507L198.737 198.532L198.899 198.214L204.548 190.302C205.302 189.387 206.002 188.445 206.648 187.474C205.517 189.171 207.051 187.149 207.376 186.824L210.282 183.274L213.025 180.284L213.831 179.4L214.319 178.919L214.072 185.056L213.916 186.187L213.831 187.155L213.35 190.38C212.973 192.807 212.488 195.23 211.894 197.648L211.244 200.073L211.01 201.204L210.522 202.816L208.098 209.519ZM252.185 209.356C251.968 208.871 251.968 208.871 252.185 209.356Z" fill="url(#a)"/>
<path d="M384.947 44.0071C384.947 45.8596 390.44 63.538 401.427 97.0421C417.907 147.298 424.409 167.217 437.407 207.049C450.405 246.881 467.881 299.532 489.862 365.004H509.829L386.801 0H383.089L261 365.004H280.031L384.947 44.0071ZM376.592 261.242H359.882L387.732 364.996H404.446L376.592 261.242ZM582.5 216L582 52.5H597.5V40.5H570.176V202L582.5 216ZM694.123 12.9692V0.00432162H570.176V12.9692H694.123Z" fill="url(#a)" />
<path d="M593 204H628V216H593V204Z" fill="url(#a)" />
<path d="M582.215 241V361.035H570.215V228L582.215 241Z" fill="url(#a)"/>
</g>
<defs>
    <linearGradient id="a" x1="0%" y1="0%" x2="100%" y2="100%">
      <stop offset="0%" stop-color="#fff2b2"/>
      <stop offset="50%" stop-color="#f5b544"/>
      <stop offset="100%" stop-color="#a86c00"/>
    </linearGradient>
<clipPath id="clip0_1_7">
<rect width="693" height="365" fill="white" transform="translate(0.600006 0.190994)"/>
</clipPath>
</defs>
</svg>
